<svg width="42" height="42" viewBox="0 0 42 42" fill="none" xmlns="http://www.w3.org/2000/svg">
<path d="M15.1802 0.388184C1.78536 0.388184 0.737061 1.43648 0.737061 14.8314V26.945C0.737061 40.3399 1.78536 41.3882 15.1802 41.3882H27.2939C40.6888 41.3882 41.7371 40.3399 41.7371 26.945V14.8314C41.7371 1.43648 40.6888 0.388184 27.2939 0.388184H15.1802ZM21.2425 7.2203C30.0333 7.2203 37.1872 13.0243 37.1872 20.1602C37.1872 23.0172 36.0802 25.5898 33.7693 28.1225C30.4241 31.9728 22.944 36.6631 21.2425 37.3806C19.5429 38.0963 19.7941 36.9223 19.8612 36.5198C19.9022 36.2813 20.0887 35.1567 20.0887 35.1567C20.1427 34.7485 20.1998 34.1178 20.0377 33.7134C19.8569 33.2717 19.1508 33.039 18.6309 32.9272C10.9676 31.9134 5.29787 26.5562 5.29787 20.1602C5.29787 13.0262 12.4517 7.2203 21.2425 7.2203ZM20.4235 16.9935C20.3397 16.9935 20.2508 17.0037 20.1669 17.0335C19.8371 17.1453 19.6137 17.4548 19.6137 17.8052V23.9657C19.6137 24.4167 19.9763 24.7811 20.4235 24.7811C20.8708 24.7811 21.2316 24.413 21.2316 23.9657V20.1547L24.3674 24.4553C24.5183 24.6603 24.76 24.7811 25.0135 24.7811C25.1011 24.7811 25.1863 24.769 25.2683 24.7392C25.6 24.6274 25.8215 24.3179 25.8215 23.9676H25.8161V17.807C25.8161 17.3597 25.457 16.9953 25.0135 16.9953C24.5699 16.9953 24.2036 17.3597 24.2036 17.807V21.6198L21.0678 17.3192C20.9168 17.1142 20.677 16.9935 20.4235 16.9935ZM16.8146 16.9953C16.3468 16.9953 15.9665 17.3597 15.9665 17.807V23.9676C15.9665 24.4186 16.3468 24.7829 16.8146 24.7829C17.2823 24.7829 17.6627 24.4167 17.6627 23.9676V17.807C17.6627 17.3597 17.2823 16.9953 16.8146 16.9953ZM28.5606 16.9953C28.0928 16.9953 27.7125 17.3597 27.7125 17.807V17.8088V20.8845V20.8864V20.8882V23.9657C27.7125 24.4167 28.0928 24.7811 28.5606 24.7811H31.7764C32.2461 24.7811 32.6264 24.4166 32.6264 23.9694C32.6264 23.5221 32.2442 23.1559 31.7764 23.1559H29.4087V21.6999H31.7764C32.2461 21.6999 32.6264 21.3355 32.6264 20.8882C32.6264 20.4372 32.2442 20.071 31.7764 20.071L29.4087 20.0765V18.6205H31.7764C32.2461 18.6205 32.6264 18.2561 32.6264 17.807C32.6264 17.3597 32.2442 16.9953 31.7764 16.9953H28.5606ZM10.6959 16.9971C10.2281 16.9971 9.84777 17.3597 9.84777 17.8088V23.9694C9.84777 24.4204 10.2281 24.7811 10.6959 24.7811H13.9099C14.3795 24.7811 14.758 24.4166 14.7598 23.9712C14.7598 23.5239 14.3795 23.1577 13.9117 23.1577H11.544V17.8088C11.544 17.3615 11.1636 16.9971 10.6959 16.9971Z" fill="#9C8B98"/>
</svg>
