<?xml version="1.0" encoding="utf-8"?>
<!-- Generator: Adobe Illustrator 27.0.0, SVG Export Plug-In . SVG Version: 6.00 Build 0)  -->
<svg version="1.1" id="Слой_1" xmlns="http://www.w3.org/2000/svg" xmlns:xlink="http://www.w3.org/1999/xlink" x="0px" y="0px"
	 viewBox="0 0 841.89 595.28" style="enable-background:new 0 0 841.89 595.28;" xml:space="preserve">
<style type="text/css">
	.st0{fill-rule:evenodd;clip-rule:evenodd;}
</style>
<g>
	<g>
		<path class="st0" d="M76.27,439.9c-2.96,0-4.84-0.66-5.67-1.97c-0.82-1.31-1.23-2.46-1.23-3.45c0-1.31,0.16-2.46,0.49-3.45
			c38.76-61.75,75.87-121.85,111.34-180.31l27.1-44.83l-17.24,21.68c-0.66,0.66-1.97,0.99-3.94,0.99c-1.31-0.66-1.97-1.81-1.97-3.45
			l0.49-1.97c15.44-22.66,32.02-44.5,49.76-65.52l0.99-0.99c-29.23,0-68.81,1.31-118.73,3.94l-2.96,0.49h-5.91l-1.97,0.49
			c-3.94,0-7.88,0.33-11.82,0.99h-6.4c-9.52,0.33-19.3,1.07-29.31,2.22c-10.02,1.15-20.12,1.72-30.3,1.72c-4.27,0-6.4-1.97-6.4-5.91
			c0-4.6,2.13-7.23,6.4-7.88c11.5-0.99,29.72-1.48,54.69-1.48c4.93,0,9.36-0.16,13.3-0.49h5.42l3.45-0.49
			c0.99,0,1.64,0.16,1.97,0.49h5.91c2.3-0.33,45.49-1.15,129.57-2.46l3.45-3.94c12.15-20.03,26.77-37.77,43.85-53.21
			c0.99-0.99,1.97-1.48,2.96-1.48c1.97,0,3.37,0.57,4.19,1.72c0.82,1.15,1.23,2.22,1.23,3.2c0,2.63-6.4,12.64-19.21,30.05
			c-3.61,5.58-6.57,9.94-8.87,13.06c-2.3,3.12-4.6,6.65-6.9,10.59c10.51,0,17.41-0.16,20.69-0.49l74.39-0.49l40.4,0.49h48.28
			c2.63,0,3.94,1.31,3.94,3.94c0,2.63-1.31,3.94-3.94,3.94h-46.31c-14.78,0-26.44-0.33-34.98-0.99c-18.39,0-32.35,0.16-41.88,0.49
			c-3.28,0.33-15.11,0.49-35.47,0.49c-17.41,0-27.59,0.16-30.55,0.49c-18.39,29.56-41.88,66.51-70.45,110.85l-81.78,129.08
			L80.7,437.43C79.39,439.08,77.91,439.9,76.27,439.9z"/>
		<path class="st0" d="M177.25,518.71c-32.84,0-58.96-6.08-78.33-18.23c-15.44-9.52-23.16-23.16-23.16-40.89
			c0-8.87,2.46-17.41,7.39-25.62c7.23-11.82,16.59-21.51,28.08-29.07c16.75-11.82,34.98-19.87,54.69-24.14
			c6.24-0.66,10.51-3.45,12.81-8.38l86.71-140.9c1.97-3.94,4.76-6.9,8.38-8.87c1.31-0.66,2.46-0.99,3.45-0.99
			c0.99,0,2.3,0.41,3.94,1.23c1.64,0.82,2.46,2.55,2.46,5.17c0,0.99-0.82,2.79-2.46,5.42l-62.57,95.58
			c52.22-1.31,95.08-16.26,128.58-44.83c8.87-7.55,15.77-16.42,20.69-26.6c2.3-5.91,3.45-11.66,3.45-17.24
			c0-5.58-0.99-11-2.96-16.26c-5.58-9.52-13.47-16.59-23.65-21.18c-13.47-5.91-27.59-9.03-42.37-9.36
			c-15.11,0-29.89,1.81-44.34,5.42c-59.45,14.45-108.55,45.32-147.31,92.62c-3.94,4.6-7.39,6.9-10.35,6.9
			c-3.28,0-4.93-1.81-4.93-5.42c0-2.3,1.15-5.09,3.45-8.38c47.62-58.46,108.88-91.47,183.76-99.03c5.91-0.66,11.82-0.99,17.74-0.99
			c33.17,0,57.48,10.84,72.91,32.52c1.97,2.63,3.61,5.5,4.93,8.62s1.97,6.16,1.97,9.11c0,6.9-1.64,14.78-4.93,23.65
			c-5.91,13.79-15.27,26.11-28.08,36.95c-18.72,14.12-39.58,24.96-62.57,32.52c42.7,4.93,69.63,22.01,80.8,51.24
			c1.31,5.58,1.97,11,1.97,16.26c0,9.52-2.13,19.05-6.4,28.57c-6.9,13.79-16.42,25.95-28.57,36.46
			c-28.9,25.29-62.24,42.37-100.01,51.24C214.03,516.42,195.64,518.71,177.25,518.71L177.25,518.71z M171.83,505.41
			c31.53,0,61.58-5.91,90.16-17.74c23.65-9.85,44.83-23.32,63.55-40.4c9.2-8.54,16.75-18.56,22.66-30.05
			c3.28-6.57,4.93-13.47,4.93-20.69c0-5.26-0.82-10.51-2.46-15.77c-6.9-17.41-22.83-29.07-47.79-34.98
			c-19.38-4.93-38.92-7.39-58.63-7.39c-8.21,0-16.59,0.49-25.13,1.48c-2.63,0-4.27-0.99-4.93-2.96l-23.65,38.92
			c10.18-1.31,20.2-1.97,30.05-1.97c35.47,0,68.97,6.4,100.5,19.21c1.64,0.66,2.46,2.13,2.46,4.43c0,2.63-1.31,3.94-3.94,3.94h-0.99
			c-31.53-12.48-63.88-18.72-97.05-18.72c-11.82,0-23.98,0.99-36.46,2.96l-5.42,9.36c-11.82,20.69-18.72,31.04-20.69,31.04
			c-1.97,0-3.28-0.49-3.94-1.48c-0.66-0.99-0.99-1.81-0.99-2.46l0.49-2.46c4.93-10.51,10.35-20.86,16.26-31.04
			c-11.5,2.63-22.74,6.4-33.75,11.33c-11,4.93-21.35,11.74-31.04,20.45c-9.69,8.7-16.18,19.13-19.46,31.28
			c-0.66,2.63-0.99,5.26-0.99,7.88c0,8.21,2.79,15.6,8.38,22.17c7.23,7.55,15.93,12.81,26.11,15.77
			C136.85,502.79,154.09,505.41,171.83,505.41z"/>
	</g>
	<path class="st0" d="M426.9,348.23h12.21v-99.27h31.82v-3.07H394.5v3.07h32.4V348.23L426.9,348.23z M498.11,245.89l31.55,102.34
		h-12.2l-9.48-30.62h-37.61l-9.43,30.62h-2.85l29.7-96.13l-1.95-6.21H498.11L498.11,245.89z M471.14,315.39h36.18l-18.13-58.74
		L471.14,315.39L471.14,315.39z M577.62,294.05c11.28-2.19,20.71-8.21,20.71-23.83c0-26.77-34.62-24.34-47.68-24.34h-12.42v102.34
		h12.55c19.93,0,56.76,2.07,56.76-27.48C607.54,302.33,593.19,296.12,577.62,294.05L577.62,294.05z M550.51,248.18
		c12.35,0,35.74-3.14,35.74,22.12c0,17.98-16.54,22.75-30.04,22.75h-5.7V248.18L550.51,248.18z M550.51,346.09v-50.82
		c13.4,0,45.02-1,45.02,25.55C595.53,349.59,563.86,346.09,550.51,346.09L550.51,346.09z M693.58,246.3
		c-7.7,0-14.76,3.36-20.68,9.14c-5.77-5.77-12.91-9.14-20.63-9.14c-19.9,0-36.18,22.85-36.18,51.11c0,28.19,16.27,51.11,36.18,51.11
		c7.72,0,14.86-3.36,20.63-9.14c5.92,5.77,12.98,9.14,20.68,9.14c19.93,0,36.2-22.92,36.2-51.11
		C729.78,269.15,713.51,246.3,693.58,246.3L693.58,246.3z M663.47,340.73c-12.77,3.22-29.96-11.33-36.1-35.62
		c-6.14-24.26,1.07-49.09,13.76-52.38c7.72-1.92,16.91,3,24.26,12.5c-4.99,8.77-7.99,19.98-7.99,32.18
		c0,15.71,4.99,29.77,12.84,39.12C668.25,338.66,665.98,340.09,663.47,340.73L663.47,340.73z M676.82,324.33
		c-3.44-5.36-6.29-11.86-8.14-19.22c-3.29-12.55-2.78-25.34,0.07-35.1c3.44,5.43,6.21,11.99,8.06,19.34
		C680.04,302.04,679.75,314.76,676.82,324.33L676.82,324.33z M704.72,340.73c-7.55,1.92-16.76-2.41-24.19-11.4
		c4.99-8.72,7.92-19.78,7.92-31.91c0-16.05-5.19-30.4-13.4-39.76c2.14-2.48,4.63-4.14,7.33-4.92c12.79-3.22,29.55,12.35,35.69,36.61
		C724.21,313.69,717.43,337.54,704.72,340.73z"/>
	<path class="st0" d="M477.49,457.36v-87.18h-1.7v70.39l-43.83-70.39H421.5l2.43,3.88v83.3h1.7v-80.5l50.16,80.5H477.49
		L477.49,457.36z M518.89,370.18h-10.46l1.66,5.29l-25.3,81.89h2.43l8.03-26.09h32.04l8.07,26.09h10.4L518.89,370.18L518.89,370.18z
		 M495.92,429.38l15.38-50.03l15.44,50.03H495.92L495.92,429.38z M563.53,370.18h-10.46v87.18h10.46V370.18L563.53,370.18z
		 M570.81,457.36h56.05v-2.61h-45.59v-84.56h-10.46V457.36L570.81,457.36z M685.47,436.81c0,21.71-20.3,18.78-20.3,18.78
		c-13.55,0-19.76-12.64-21.96-22.37l-9.05,7.24c4.5,7.59,11.73,16.89,31,16.89c0,0,32.23,4.01,32.23-22.56
		c0-28.76-50.72-22.5-50.72-46.03c0-16.29,15.4-16.77,15.4-16.77c11.06,0,17.49,8.92,19.26,15l8.28-5.89
		c-5.79-5.83-14.65-10.87-27.54-10.87c0,0-25.67-0.37-25.67,20.86C636.41,421.25,685.47,412.24,685.47,436.81z"/>
</g>
</svg>
