<?xml version="1.0" encoding="utf-8"?>
<!-- Generator: Adobe Illustrator 27.0.0, SVG Export Plug-In . SVG Version: 6.00 Build 0)  -->
<svg version="1.1" id="Layer_1" xmlns="http://www.w3.org/2000/svg" xmlns:xlink="http://www.w3.org/1999/xlink" x="0px" y="0px"
	 viewBox="0 0 1417.32 566.93" style="enable-background:new 0 0 1417.32 566.93;" xml:space="preserve">
<style type="text/css">
	.st0{fill-rule:evenodd;clip-rule:evenodd;}
</style>
<g>
	<g>
		<path class="st0" d="M215.26,371.1c-2.44,0-4-0.54-4.68-1.63c-0.68-1.08-1.02-2.03-1.02-2.85c0-1.08,0.14-2.03,0.41-2.85
			c32-50.99,62.65-100.62,91.94-148.89l22.37-37.02l-14.24,17.9c-0.54,0.54-1.63,0.81-3.25,0.81c-1.08-0.54-1.63-1.49-1.63-2.85
			l0.41-1.63c12.75-18.71,26.44-36.75,41.09-54.11l0.81-0.81c-24.14,0-56.82,1.08-98.04,3.25l-2.44,0.41h-4.88l-1.63,0.41
			c-3.25,0-6.51,0.27-9.76,0.81h-5.29c-7.87,0.27-15.93,0.88-24.21,1.83c-8.27,0.95-16.61,1.42-25.02,1.42
			c-3.53,0-5.29-1.63-5.29-4.88c0-3.8,1.76-5.97,5.29-6.51c9.49-0.81,24.54-1.22,45.16-1.22c4.07,0,7.73-0.14,10.98-0.41h4.47
			l2.85-0.41c0.81,0,1.36,0.14,1.63,0.41h4.88c1.9-0.27,37.56-0.95,106.99-2.03l2.85-3.25c10.03-16.54,22.1-31.19,36.21-43.94
			c0.81-0.81,1.63-1.22,2.44-1.22c1.63,0,2.78,0.47,3.46,1.42c0.68,0.95,1.02,1.83,1.02,2.64c0,2.17-5.29,10.44-15.87,24.82
			c-2.98,4.61-5.42,8.2-7.32,10.78c-1.9,2.58-3.8,5.49-5.7,8.75c8.68,0,14.37-0.14,17.09-0.41l61.43-0.41l33.36,0.41h39.87
			c2.17,0,3.25,1.08,3.25,3.25c0,2.17-1.08,3.25-3.25,3.25h-38.24c-12.2,0-21.83-0.27-28.88-0.81c-15.19,0-26.71,0.14-34.58,0.41
			c-2.71,0.27-12.48,0.41-29.29,0.41c-14.37,0-22.78,0.14-25.22,0.41c-15.19,24.41-34.58,54.92-58.17,91.53l-67.53,106.58
			l-21.15,34.17C217.83,370.42,216.61,371.1,215.26,371.1z"/>
		<path class="st0" d="M298.64,436.18c-27.12,0-48.68-5.02-64.68-15.05c-12.75-7.86-19.12-19.12-19.12-33.76
			c0-7.32,2.03-14.37,6.1-21.15c5.97-9.76,13.7-17.76,23.19-24c13.83-9.76,28.88-16.41,45.16-19.93c5.15-0.54,8.68-2.85,10.58-6.92
			l71.6-116.35c1.63-3.25,3.93-5.7,6.92-7.32c1.08-0.54,2.03-0.81,2.85-0.81c0.81,0,1.9,0.34,3.25,1.02
			c1.36,0.68,2.03,2.1,2.03,4.27c0,0.81-0.68,2.31-2.03,4.47l-51.66,78.92c43.12-1.08,78.51-13.42,106.18-37.02
			c7.32-6.24,13.02-13.56,17.09-21.97c1.9-4.88,2.85-9.63,2.85-14.24c0-4.61-0.81-9.09-2.44-13.42
			c-4.61-7.86-11.12-13.7-19.53-17.49c-11.12-4.88-22.78-7.46-34.99-7.73c-12.48,0-24.68,1.49-36.61,4.47
			c-49.09,11.93-89.63,37.43-121.64,76.48c-3.25,3.8-6.1,5.7-8.54,5.7c-2.71,0-4.07-1.49-4.07-4.48c0-1.9,0.95-4.2,2.85-6.92
			c39.32-48.27,89.9-75.53,151.74-81.77c4.88-0.54,9.76-0.81,14.65-0.81c27.39,0,47.46,8.95,60.21,26.85
			c1.63,2.17,2.98,4.54,4.07,7.12s1.63,5.09,1.63,7.53c0,5.7-1.36,12.2-4.07,19.53c-4.88,11.39-12.61,21.56-23.19,30.51
			c-15.46,11.66-32.68,20.61-51.66,26.85c35.26,4.07,57.5,18.17,66.72,42.31c1.08,4.61,1.63,9.09,1.63,13.42
			c0,7.86-1.76,15.73-5.29,23.59c-5.7,11.39-13.56,21.43-23.6,30.1c-23.87,20.88-51.39,34.99-82.58,42.31
			C329.01,434.28,313.82,436.18,298.64,436.18L298.64,436.18z M294.16,425.2c26.04,0,50.85-4.88,74.45-14.65
			c19.53-8.14,37.02-19.26,52.48-33.36c7.59-7.05,13.83-15.32,18.71-24.82c2.71-5.42,4.07-11.12,4.07-17.09
			c0-4.34-0.68-8.68-2.03-13.02c-5.7-14.37-18.85-24-39.46-28.88c-16-4.07-32.14-6.1-48.41-6.1c-6.78,0-13.7,0.41-20.75,1.22
			c-2.17,0-3.53-0.81-4.07-2.44l-19.53,32.14c8.41-1.08,16.68-1.63,24.82-1.63c29.29,0,56.95,5.29,82.99,15.87
			c1.36,0.54,2.03,1.76,2.03,3.66c0,2.17-1.08,3.25-3.25,3.25h-0.81c-26.04-10.31-52.75-15.46-80.14-15.46
			c-9.76,0-19.8,0.81-30.1,2.44l-4.47,7.73c-9.76,17.09-15.46,25.63-17.09,25.63c-1.63,0-2.71-0.41-3.25-1.22
			c-0.54-0.81-0.81-1.49-0.81-2.03l0.41-2.03c4.07-8.68,8.54-17.22,13.42-25.63c-9.49,2.17-18.78,5.29-27.87,9.36
			c-9.09,4.07-17.63,9.7-25.63,16.88c-8,7.19-13.36,15.8-16.07,25.83c-0.54,2.17-0.81,4.34-0.81,6.51c0,6.78,2.31,12.88,6.92,18.31
			c5.97,6.24,13.15,10.58,21.56,13.02C265.28,423.03,279.52,425.2,294.16,425.2z"/>
	</g>
	<path class="st0" d="M537.33,274.97h9.02v-73.35h23.51v-2.27h-56.47v2.27h23.94V274.97L537.33,274.97z M589.94,199.35l23.31,75.62
		h-9.02l-7-22.63h-27.79l-6.97,22.63h-2.11l21.94-71.03l-1.44-4.59H589.94L589.94,199.35z M570.02,250.71h26.73l-13.39-43.4
		L570.02,250.71L570.02,250.71z M648.7,234.94c8.33-1.62,15.3-6.07,15.3-17.6c0-19.78-25.58-17.98-35.23-17.98h-9.18v75.62h9.27
		c14.72,0,41.94,1.53,41.94-20.3C670.8,241.06,660.2,236.47,648.7,234.94L648.7,234.94z M628.66,201.04
		c9.13,0,26.41-2.32,26.41,16.34c0,13.28-12.22,16.81-22.19,16.81h-4.21V201.04L628.66,201.04z M628.66,273.39v-37.55
		c9.9,0,33.26-0.74,33.26,18.88C661.93,275.98,638.53,273.39,628.66,273.39L628.66,273.39z M734.38,199.66
		c-5.69,0-10.91,2.48-15.28,6.75c-4.27-4.27-9.54-6.75-15.25-6.75c-14.71,0-26.73,16.88-26.73,37.76
		c0,20.83,12.02,37.76,26.73,37.76c5.71,0,10.98-2.48,15.25-6.75c4.37,4.27,9.59,6.75,15.28,6.75c14.72,0,26.75-16.94,26.75-37.76
		C761.13,216.54,749.1,199.66,734.38,199.66L734.38,199.66z M712.13,269.43c-9.43,2.38-22.14-8.37-26.68-26.32
		c-4.54-17.93,0.79-36.27,10.17-38.7c5.71-1.42,12.49,2.21,17.93,9.23c-3.69,6.48-5.9,14.76-5.9,23.78c0,11.61,3.69,22,9.49,28.91
		C715.66,267.9,713.98,268.96,712.13,269.43L712.13,269.43z M721.99,257.31c-2.54-3.96-4.64-8.77-6.01-14.2
		c-2.43-9.27-2.05-18.72,0.05-25.94c2.54,4.01,4.59,8.86,5.96,14.29C724.37,240.84,724.15,250.24,721.99,257.31L721.99,257.31z
		 M742.6,269.43c-5.58,1.42-12.38-1.78-17.87-8.42c3.69-6.44,5.85-14.62,5.85-23.58c0-11.86-3.83-22.46-9.9-29.38
		c1.58-1.84,3.42-3.06,5.42-3.64c9.45-2.38,21.83,9.13,26.37,27.05C757,249.45,752,267.07,742.6,269.43z"/>
	<path class="st0" d="M574.71,355.6v-64.42h-1.26v52.01l-32.38-52.01h-7.73l1.79,2.87v61.55h1.26v-59.48l37.06,59.48H574.71
		L574.71,355.6z M605.3,291.19h-7.73l1.23,3.91l-18.69,60.51h1.79l5.93-19.27h23.67l5.96,19.27h7.68L605.3,291.19L605.3,291.19z
		 M588.33,334.93l11.36-36.97l11.41,36.97H588.33L588.33,334.93z M638.28,291.19h-7.73v64.42h7.73V291.19L638.28,291.19z
		 M643.67,355.6h41.42v-1.93h-33.69v-62.48h-7.73V355.6L643.67,355.6z M728.38,340.42c0,16.04-15,13.88-15,13.88
		c-10.01,0-14.6-9.34-16.22-16.53l-6.69,5.35c3.33,5.61,8.66,12.48,22.91,12.48c0,0,23.81,2.96,23.81-16.67
		c0-21.25-37.48-16.62-37.48-34.01c0-12.04,11.38-12.39,11.38-12.39c8.17,0,12.93,6.59,14.23,11.09l6.12-4.35
		c-4.28-4.31-10.83-8.03-20.35-8.03c0,0-18.97-0.28-18.97,15.41C692.13,328.92,728.38,322.27,728.38,340.42z"/>
</g>
</svg>
