<svg width="42" height="42" viewBox="0 0 42 42" fill="none" xmlns="http://www.w3.org/2000/svg">
<g clip-path="url(#clip0_76_955)">
<path d="M0.737061 20.0682C0.737061 10.7907 0.737058 6.14725 3.6185 3.26963C6.49994 0.391997 11.1396 0.388184 20.4171 0.388184H22.0571C31.3345 0.388184 35.978 0.388184 38.8556 3.26963C41.7332 6.15107 41.7371 10.7907 41.7371 20.0682V21.7082C41.7371 30.9856 41.7371 35.6291 38.8556 38.5067C35.9742 41.3844 31.3345 41.3882 22.0571 41.3882H20.4171C11.1396 41.3882 6.49613 41.3882 3.6185 38.5067C0.740872 35.6253 0.737061 30.9856 0.737061 21.7082V20.0682Z" fill="#9C8B98"/>
<path fill-rule="evenodd" clip-rule="evenodd" d="M9.18306 20.4115C15.7392 17.5548 20.1113 15.6714 22.2993 14.7611C28.5465 12.1619 29.8433 11.7099 30.69 11.6966C31.0008 11.6892 31.3059 11.7807 31.5614 11.9578C31.7402 12.1137 31.8544 12.3306 31.8818 12.5662C31.9273 12.8594 31.9401 13.1568 31.92 13.4529C31.5805 17.0094 30.116 25.6404 29.3703 29.6222C29.0557 31.3079 28.4359 31.8743 27.8333 31.9296C26.527 32.0497 25.5354 31.0657 24.2711 30.2362C22.2916 28.9395 21.1722 28.1385 19.2519 26.8647C17.0303 25.402 18.47 24.5973 19.7363 23.2834C20.0681 22.9382 25.8214 17.7036 25.934 17.2287C25.9484 17.159 25.9464 17.0869 25.9282 17.018C25.91 16.9492 25.8761 16.8855 25.8291 16.8321C25.7607 16.788 25.6829 16.7608 25.602 16.7529C25.521 16.7449 25.4394 16.7564 25.3638 16.7863C25.1654 16.8321 22.003 18.9221 15.8766 23.0564C14.9777 23.6743 14.1647 23.975 13.4375 23.9584C12.6328 23.9413 11.0881 23.5046 9.94014 23.1308C8.53279 22.6731 7.4134 22.431 7.51065 21.6529C7.56023 21.2461 8.1177 20.8323 9.18306 20.4115Z" fill="white"/>
</g>
<defs>
<clipPath id="clip0_76_955">
<rect width="41" height="41" fill="white" transform="translate(0.737061 0.388184)"/>
</clipPath>
</defs>
</svg>
