<svg width="42" height="42" viewBox="0 0 42 42" fill="none" xmlns="http://www.w3.org/2000/svg">
<g clip-path="url(#clip0_76_949)">
<path d="M0.737061 20.0682C0.737061 10.7907 0.737058 6.14725 3.6185 3.26963C6.49994 0.391997 11.1396 0.388184 20.4171 0.388184H22.0571C31.3345 0.388184 35.978 0.388184 38.8556 3.26963C41.7332 6.15107 41.7371 10.7907 41.7371 20.0682V21.7082C41.7371 30.9856 41.7371 35.6291 38.8556 38.5067C35.9742 41.3844 31.3345 41.3882 22.0571 41.3882H20.4171C11.1396 41.3882 6.49613 41.3882 3.6185 38.5067C0.740872 35.6253 0.737061 30.9856 0.737061 21.7082V20.0682Z" fill="#9C8B98"/>
<path d="M10.1899 32.1146L11.7727 26.3326C10.5467 24.2048 10.057 21.7319 10.3794 19.2975C10.7018 16.863 11.8184 14.6028 13.556 12.8675C15.2936 11.1322 17.5552 10.0185 19.9901 9.69931C22.425 9.38007 24.8972 9.87306 27.0235 11.1018C29.1497 12.3306 30.8111 14.2265 31.7502 16.4956C32.6893 18.7647 32.8536 21.2802 32.2175 23.6522C31.5815 26.0241 30.1807 28.12 28.2323 29.6148C26.284 31.1097 23.8969 31.92 21.4411 31.9201C19.5788 31.9204 17.7462 31.4536 16.1111 30.5623L10.1899 32.1146ZM16.3743 28.5428L16.7137 28.743C18.1423 29.59 19.7727 30.0366 21.4335 30.036C23.4889 30.0356 25.486 29.3522 27.1107 28.0933C28.7355 26.8343 29.8958 25.0712 30.4094 23.0809C30.923 21.0907 30.7607 18.9862 29.948 17.0983C29.1353 15.2103 27.7183 13.646 25.9197 12.6511C24.1211 11.6562 22.0428 11.2871 20.0117 11.6019C17.9805 11.9168 16.1115 12.8976 14.6985 14.3903C13.2854 15.883 12.4085 17.803 12.2054 19.8483C12.0024 21.8937 12.4848 23.9486 13.5767 25.69L13.7979 26.0409L12.8616 29.4639L16.3743 28.5428Z" fill="white"/>
<path fill-rule="evenodd" clip-rule="evenodd" d="M27.0533 23.4168C26.9847 23.3005 26.7978 23.2261 26.5194 23.0907C26.241 22.9553 24.8699 22.2765 24.6124 22.1849C24.355 22.0934 24.1719 22.0438 23.985 22.3241C23.7981 22.6045 23.2661 23.2299 23.1021 23.4168C22.9381 23.6037 22.7779 23.6266 22.4995 23.4874C21.6778 23.1585 20.9191 22.6901 20.2569 22.1029C19.6475 21.5391 19.125 20.8881 18.7065 20.1711C18.5444 19.8927 18.6893 19.7421 18.8285 19.5991C18.9678 19.456 19.107 19.273 19.2462 19.1109C19.3607 18.9698 19.4544 18.8131 19.5246 18.6456C19.562 18.5688 19.5796 18.4839 19.5756 18.3986C19.5716 18.3132 19.5462 18.2303 19.5017 18.1574C19.4331 18.0182 18.8743 16.6451 18.6436 16.0864C18.4128 15.5277 18.1859 15.6173 18.0162 15.6078C17.8465 15.5982 17.6672 15.6078 17.4803 15.6078C17.3427 15.6134 17.2076 15.6467 17.0831 15.7057C16.9586 15.7646 16.8472 15.8481 16.7557 15.951C16.4404 16.2498 16.1907 16.611 16.0226 17.0115C15.8545 17.412 15.7717 17.8432 15.7793 18.2775C15.7793 19.6486 16.7785 20.974 16.9235 21.1609C17.0684 21.3478 18.8896 24.1625 21.6909 25.3696C22.21 25.594 22.7409 25.7901 23.2813 25.9569C23.8494 26.1309 24.4504 26.1688 25.0358 26.0675C25.5716 25.9874 26.6853 25.3944 26.9179 24.7326C27.1506 24.0709 27.1315 23.5331 27.0533 23.4168Z" fill="white"/>
</g>
<defs>
<clipPath id="clip0_76_949">
<rect width="41" height="41" fill="white" transform="translate(0.737061 0.388184)"/>
</clipPath>
</defs>
</svg>
